<svg class="svg-icon" style="width: 1em; height: 1em;vertical-align: middle;fill: currentColor;overflow: hidden;" viewBox="0 0 1024 1024" version="1.1" xmlns="http://www.w3.org/2000/svg"><path d="M598.186667 955.733333h-0.443734a17.117867 17.117867 0 0 1-15.240533-10.325333L476.859733 699.733333H426.666667a17.066667 17.066667 0 1 1 0-34.133333h35.5328l-136.533334-317.525333a17.066667 17.066667 0 0 1 22.408534-22.408534l317.525333 136.533334V426.666667a17.066667 17.066667 0 1 1 34.133333 0v50.158933l245.640534 104.8064a17.083733 17.083733 0 0 1 0.9216 30.976l-149.486934 74.752 153.924267 153.924267a17.0496 17.0496 0 0 1 0 24.132266l-85.333333 85.333334a17.0496 17.0496 0 0 1-24.132267 0l-153.856-153.856-73.9328 149.3504a17.066667 17.066667 0 0 1-15.291733 9.489066zM682.666667 750.933333a17.066667 17.066667 0 0 1 12.066133 5.000534L853.333333 914.5344 914.5344 853.333333l-158.600533-158.600533a17.015467 17.015467 0 0 1 4.437333-27.323733l137.6768-68.829867-222.037333-94.737067-0.1024-0.034133-301.9776-129.877333 129.860266 301.994666 0.034134 0.068267 95.453866 222.020267 68.096-137.5744A17.066667 17.066667 0 0 1 682.666667 750.933333z m-341.333334-51.2h-85.333333a17.066667 17.066667 0 1 1 0-34.133333h85.333333a17.066667 17.066667 0 1 1 0 34.133333z m-170.666666 0H85.333333a17.066667 17.066667 0 0 1-17.066666-17.066666v-85.333334a17.066667 17.066667 0 1 1 34.133333 0v68.266667h68.266667a17.066667 17.066667 0 1 1 0 34.133333zM85.333333 529.066667a17.066667 17.066667 0 0 1-17.066666-17.066667v-85.333333a17.066667 17.066667 0 0 1 34.133333 0v85.333333a17.066667 17.066667 0 0 1-17.066667 17.066667z m597.333334-170.666667a17.066667 17.066667 0 0 1-17.066667-17.066667v-85.333333a17.066667 17.066667 0 1 1 34.133333 0v85.333333a17.066667 17.066667 0 0 1-17.066666 17.066667zM85.333333 358.4a17.066667 17.066667 0 0 1-17.066666-17.066667v-85.333333a17.066667 17.066667 0 0 1 34.133333 0v85.333333a17.066667 17.066667 0 0 1-17.066667 17.066667z m597.333334-170.666667a17.066667 17.066667 0 0 1-17.066667-17.066666V102.4h-68.266667a17.066667 17.066667 0 1 1 0-34.133333h85.333334a17.066667 17.066667 0 0 1 17.066666 17.066666v85.333334a17.066667 17.066667 0 0 1-17.066666 17.066666zM85.333333 187.733333a17.066667 17.066667 0 0 1-17.066666-17.066666V85.333333a17.066667 17.066667 0 0 1 17.066666-17.066666h85.333334a17.066667 17.066667 0 0 1 0 34.133333H102.4v68.266667a17.066667 17.066667 0 0 1-17.066667 17.066666z m426.666667-85.333333h-85.333333a17.066667 17.066667 0 0 1 0-34.133333h85.333333a17.066667 17.066667 0 1 1 0 34.133333zM341.333333 102.4h-85.333333a17.066667 17.066667 0 0 1 0-34.133333h85.333333a17.066667 17.066667 0 0 1 0 34.133333z"  /></svg>